<svg id="SvgjsSvg1110" width="288" height="288" xmlns="http://www.w3.org/2000/svg" version="1.1" xmlns:xlink="http://www.w3.org/1999/xlink" xmlns:svgjs="http://svgjs.com/svgjs"><defs id="SvgjsDefs1111"></defs><g id="SvgjsG1112"><svg xmlns="http://www.w3.org/2000/svg" enable-background="new 0 0 22.185 27" viewBox="0 0 22.185 27" width="288" height="288"><path d="M18.436 14.271c0-2.225 1.216-4.166 3.02-5.194-.942-1.156-2.359-2.192-3.921-2.496-2.13-.415-3.345.276-4.131.553-.786.277-1.83.526-1.83.526s-1.043-.249-1.83-.526C8.959 6.857 7.744 6.165 5.614 6.58s-3.99 2.192-4.746 3.776c-1.458 3.057-.858 6.903.172 9.669 1.029 2.767 3.75 6.633 5.86 6.944 1.501.221 2.43-.816 4.674-1.079 2.244.263 3.173 1.3 4.674 1.079 2.11-.311 4.831-4.177 5.86-6.944.025-.068.051-.138.076-.208C19.987 18.935 18.436 16.784 18.436 14.271zM11.041 6.075c0 0 2.087.277 3.982-1.875s1.356-4.188 1.356-4.188-2.087-.277-3.982 1.875S11.041 6.075 11.041 6.075z" fill="#ffffff" class="color000 svgShape"></path></svg></g></svg>