<svg id="SvgjsSvg1011" width="288" height="288" xmlns="http://www.w3.org/2000/svg" version="1.1" xmlns:xlink="http://www.w3.org/1999/xlink" xmlns:svgjs="http://svgjs.com/svgjs"><defs id="SvgjsDefs1012"></defs><g id="SvgjsG1013"><svg xmlns="http://www.w3.org/2000/svg" viewBox="0 0 16.933 16.933" width="288" height="288"><path d="M13.494 281.3c-.339 0-.678.128-.936.386l-.702.702 2.591 2.92.867-.866a1.326 1.326 0 0 0 0-1.872l-.884-.884a1.317 1.317 0 0 0-.936-.385zm-2.013 1.463-8.82 8.82 1.177 1.204 8.763-8.762zm1.472 1.659-8.744 8.744 1.178 1.203 8.686-8.686zM2.348 292.02l-.373 1.044 1.99 1.95.973-.348zm-.569 1.593-.705 1.974a.265.265 0 0 0 .338.338l2-.714z" color="#000" font-family="sans-serif" font-weight="400" overflow="visible" transform="translate(0 -280.067)" style="line-height:normal;font-variant-ligatures:normal;font-variant-position:normal;font-variant-caps:normal;font-variant-numeric:normal;font-variant-alternates:normal;font-feature-settings:normal;text-indent:0;text-align:start;text-decoration-line:none;text-decoration-style:solid;text-decoration-color:#000;text-transform:none;text-orientation:mixed;shape-padding:0;isolation:auto;mix-blend-mode:normal" fill="#0460ff" class="color000 svgShape"></path></svg></g></svg>