<svg id="SvgjsSvg1127" width="288" height="288" xmlns="http://www.w3.org/2000/svg" version="1.1" xmlns:xlink="http://www.w3.org/1999/xlink" xmlns:svgjs="http://svgjs.com/svgjs"><defs id="SvgjsDefs1128"></defs><g id="SvgjsG1129"><svg xmlns="http://www.w3.org/2000/svg" data-name="Layer 2" viewBox="0 0 35 35" width="288" height="288"><path d="M24.87 33.34a1.25 1.25 0 0 1-1.25-1.25V12.2a1.25 1.25 0 0 1 2.5 0V32.09A1.25 1.25 0 0 1 24.87 33.34zM2 33.27A1.25 1.25 0 0 1 .77 32V6.89C.77 3.23 3.39.25 6.62.25h22.2a1.25 1.25 0 0 1 0 2.5H6.62c-1.85 0-3.35 1.86-3.35 4.14V32A1.25 1.25 0 0 1 2 33.27z" fill="#1e2a53" class="color000 svgShape"></path><path d="M5.71 35.75a1.27 1.27 0 0 1-.6-.15l-3.69-2a1.25 1.25 0 0 1 1.19-2.2l3.1 1.68L8.8 31.4a1.28 1.28 0 0 1 1.2 0l3.09 1.68 3.1-1.68a1.26 1.26 0 0 1 1.19 0l3.1 1.68 3.11-1.68a1.25 1.25 0 0 1 1.19 2.2l-3.7 2a1.26 1.26 0 0 1-1.19 0l-3.11-1.68L13.69 35.6a1.26 1.26 0 0 1-1.19 0L9.4 33.92 6.3 35.6A1.23 1.23 0 0 1 5.71 35.75zM33 16.31H24.87a1.25 1.25 0 0 1-1.25-1.25V5.56a5.31 5.31 0 1 1 10.61 0v9.5A1.25 1.25 0 0 1 33 16.31zm-6.86-2.5h5.61V5.56a2.81 2.81 0 1 0-5.61 0zM13.06 17.77a3.35 3.35 0 0 1-3.57-3.08 1 1 0 0 1 2 0c0 .58.72 1.08 1.57 1.08s1.56-.5 1.56-1.08-.72-1.08-1.56-1.08h-.31a3.3 3.3 0 0 1-3.18-3.06 3.35 3.35 0 0 1 3.57-3.08 3.35 3.35 0 0 1 3.56 3.08 1 1 0 0 1-2 0c0-.59-.72-1.08-1.56-1.08s-1.57.49-1.57 1.08.6 1 1.35 1.06l.2 0h0a3.32 3.32 0 0 1 3.49 3.07A3.35 3.35 0 0 1 13.06 17.77z" fill="#1e2a53" class="color000 svgShape"></path><path d="M13.1 19.17a1 1 0 0 1-1-1v-1.4a1 1 0 0 1 2 0v1.4A1 1 0 0 1 13.1 19.17zM13.1 9.46a1 1 0 0 1-1-1V7.06a1 1 0 0 1 2 0v1.4A1 1 0 0 1 13.1 9.46zM17.65 25.07H8.55a1 1 0 0 1 0-2h9.1a1 1 0 0 1 0 2z" fill="#1e2a53" class="color000 svgShape"></path></svg></g></svg>